<?xml version="1.0" encoding="UTF-8"?>
<svg id="dessin" xmlns="http://www.w3.org/2000/svg" viewBox="0 0 412.59 390.33">
  <defs>
    <style>
      .cls-1 {
        fill: #fff;
        stroke: #fff;
        stroke-width: 2px;
      }
    </style>
  </defs>
  <path class="cls-1" d="M346.8,250.77c2.74-6,4.18-12.82,4.02-19.52-1.75-34.51-3.31-68.24-10.31-100.5l-.04-.19c-10.35-52.96-79.12-78.17-120.93-43.73-3.32,2.43-6.12,4.88-9.27,7.67-3.88,3.4-8.34,6.72-13.68,6.51-4.53-.09-8.32-2.42-11.77-5.38-38.33-45.25-119.48-20.49-128.24,37.57-5.59,27.96,5.86,57.47,28.71,74.48,35.42,23.1,76.75,39.96,115.78,58.08l-6.5,30.71c-.89,4.22-5.03,6.93-9.26,6.06l-16.8-3.47c-10.49-2.17-20.83,4.33-23.43,14.73h0c-2.78,11.12,4.24,22.32,15.45,24.67l21.52,4.51c18.17,3.8,35.93-8.05,39.38-26.3l7.76-41.1c3.07.14,6.16-.07,9.19-.67,10.61-1.83,18.75-9.43,28.26-13.79,7.37-3.08,13,3.89,18.87,7.07,5.48,2.81,11.42,5.48,17.58,6.65.42.08.84.15,1.25.21l4.03,13.81c1.21,4.15-1.16,8.49-5.3,9.72l-16.44,4.89c-10.27,3.06-16.31,13.67-13.68,24.06h0c2.81,11.11,14.29,17.66,25.28,14.43l30.71-9.04c12.54-3.69,19.6-16.95,15.66-29.41l-11.3-35.78c5.72-4.3,10.38-10.14,13.48-16.93ZM122.88,201.16c-17.06-.95-32.23-10.04-40.64-24.08-5.28-8.59-8.18-18.68-8.65-28.87-.06-.46-.07-1.68.26-1.72h.05c13.61,21.72,45.86,17.58,53.19-5.91,7.28-21.09-13.8-42.68-34.86-36.81-1.17.29-1.85.37-1.65-.03,8.47-8.78,22.67-13.84,36.38-14.07,78.74-.07,72.58,118.56-4.07,111.49ZM234.8,222.69l-.11.19c-15.6,23.76-44.83,26.38-62.07,8.08-1.51-1.58-2.99-3.07-4.07-5.04-1.56-2.61-.7-6.23,2.83-6.17,2.54-.09,4.98.62,7.44.99,16.98,3.02,33.72.49,50.34-6.1,4.78-1.42,8.26,4,5.64,8.06ZM271.19,200.75l-.23.03c-38.96,4.91-64.65-25.26-64.48-55.54-.01-1.94.35-1.85,1.42.27,12.51,24.85,51.6,20.06,56.64-7.85,1.35-6.97-.19-14.4-4.13-20.18-7.06-10.69-21.55-16.27-34.22-12.35-2.7.85-5.19,2.1-2.55-.27,6.66-6.09,16.09-10.84,25.86-13.1,79.97-19.23,99.46,101.24,21.68,109Z"/>
</svg>