<?xml version="1.0" encoding="UTF-8"?>
<svg id="Calque_1" data-name="Calque 1" xmlns="http://www.w3.org/2000/svg" viewBox="0 0 674.65 395.76">
  <defs>
    <style>
      .cls-1 {
        fill: #fff;
      }
    </style>
  </defs>
  <path class="cls-1" d="M436.95,170.15c-1.45-28.72-2.83-55.85-8.57-82.31l-.09-.43h0c-4.25-21.23-19.81-38.56-41.69-46.4-21.76-7.8-44.67-4.28-61.26,9.39-2.77,2.03-5.1,4.05-7.85,6.5-3.23,2.83-6.8,5.43-10.93,5.26-3.05-.06-5.93-1.38-9.31-4.28-14.85-17.49-39.06-24.1-63.2-17.24-24.88,7.06-42.53,25.95-46.04,49.26-4.78,23.93,4.82,48.84,24.5,63.49,23.75,15.49,50.9,27.76,77.16,39.63,10.71,4.84,21.78,9.85,32.39,14.97,4.38,1.76,8.93,2.66,13.42,2.66,2.14,0,4.27-.2,6.36-.61,5.88-1.01,10.89-4.08,15.74-7.05,2.66-1.63,5.4-3.31,8.2-4.59,4.15-1.73,7.59.72,11.22,3.33,1.28.91,2.59,1.86,3.94,2.59,4.32,2.22,9.48,4.62,15.01,5.67,15.52,3,30.65-5.32,37.67-20.7,2.4-5.25,3.59-11.05,3.45-16.8l-.12-2.32ZM368.97,146.04c-14.25,1.8-27.6-2.1-37.6-10.96-9.53-8.45-15.32-20.89-15.65-33.51,5.2,9.52,15.69,14.59,26.97,12.96,8.99-1.3,19.44-7.39,21.82-20.56,1.18-6.09-.13-12.51-3.6-17.59-6.21-9.41-18.94-14.02-29.64-10.75,5.35-4.42,12.52-7.87,19.97-9.6,18.96-4.56,35.55.03,46.73,12.93,11.8,13.62,15.27,33.99,8.63,50.68-5.8,14.58-18.25,23.8-35.2,26.13l.03-.03-2.44.31ZM340.17,80.69c.4-.22.82-.44,1.1-.67,3.23-2.04,5.86-4.96,7.79-8.65.12-.2.25-.46.38-.73.11-.23.3-.64.48-.89.19.36.37.73.56,1.11.34.69.69,1.41,1.1,2.07,1.89,3.21,4.85,6.03,8.54,8.15l.08.05c.14.09.43.26.6.41-.2.2-.64.44-.91.58-.27.14-.53.29-.68.4-3.19,1.91-5.91,4.61-7.64,7.6-.36.59-.67,1.21-.98,1.82-.23.46-.46.92-.69,1.32,0,0,0,0,0,0-.19-.25-.38-.66-.52-.97-.14-.3-.28-.61-.42-.82-1.75-3.35-4.05-6.03-6.81-7.96-.56-.41-1.17-.75-1.76-1.09-.52-.29-1.01-.57-1.41-.85-.02-.02-.04-.03-.06-.05.28-.3.78-.57,1.26-.84ZM283.48,164.57c.34-.59.96-.91,1.84-.91.02,0,.04,0,.06,0,1.42-.05,2.78.21,4.24.49.62.12,1.24.24,1.84.33,13.81,2.46,27.8.76,42.71-5.15,1.42-.42,2.79.02,3.66,1.18.96,1.28,1.01,2.98.11,4.37l-.08.14c-6.25,9.5-15.67,15.47-25.86,16.36-9.32.82-18.43-2.72-25.01-9.7l-.23-.25c-1.16-1.21-2.26-2.36-3.07-3.85-.59-.99-.68-2.2-.21-3.01ZM225.99,80.69c.4-.22.82-.44,1.1-.67,3.23-2.04,5.86-4.96,7.79-8.65.12-.2.25-.46.38-.73.11-.23.3-.64.48-.89.19.36.37.73.55,1.1.34.7.7,1.42,1.1,2.07,1.89,3.21,4.85,6.03,8.53,8.15l.08.05c.14.09.43.26.59.4-.2.2-.64.44-.91.58-.27.14-.53.29-.68.4-3.19,1.91-5.91,4.61-7.64,7.6-.36.59-.67,1.21-.98,1.81-.23.46-.47.92-.7,1.33,0,0,0,0,0,0-.19-.25-.38-.66-.52-.97-.14-.3-.28-.61-.42-.82-1.75-3.35-4.05-6.03-6.81-7.96-.56-.41-1.17-.75-1.76-1.09-.52-.29-1.01-.57-1.41-.85-.02-.02-.04-.03-.06-.05.28-.3.78-.57,1.26-.84ZM248.89,96.54c2.93-8.5.79-17.72-5.74-24.66-6.25-6.64-15.12-9.51-23.39-7.68,6.84-5.98,17.41-9.72,28.23-9.9h.06c18.47,0,32.94,7.99,40.74,22.5,8.42,15.65,7.47,36.14-2.36,51-9.02,13.62-23.86,20.21-41.82,18.56-14-.78-26.52-8.2-33.5-19.85-4.1-6.67-6.54-14.54-7.1-22.87,5.67,7.51,14.69,11.37,24.1,10.15,9.89-1.28,17.86-7.9,20.78-17.26Z"/>
  <g>
    <path class="cls-1" d="M74.92,254.84c2.89-2.89,6.83-4.34,11.81-4.34h57.81c.81,1.27,1.53,2.95,2.17,5.03.63,2.08.95,4.34.95,6.77,0,4.4-.95,7.58-2.86,9.55-1.91,1.97-4.49,2.95-7.73,2.95h-36.46v19.62h38.02c.81,1.27,1.56,2.92,2.26,4.95.7,2.03,1.04,4.25,1.04,6.68,0,4.4-.96,7.55-2.86,9.46-1.91,1.91-4.49,2.86-7.73,2.86h-30.38v37.15c-1.27.35-3.24.69-5.9,1.04-2.66.35-5.38.52-8.16.52-6.14,0-10.39-1.04-12.76-3.12-2.37-2.08-3.56-5.84-3.56-11.29v-76.04c0-4.98,1.45-8.91,4.34-11.81Z"/>
    <path class="cls-1" d="M174.74,357.1c-6.14,0-10.39-1.04-12.76-3.12-2.37-2.08-3.56-5.84-3.56-11.29v-92.53c1.39-.23,3.41-.55,6.08-.96,2.66-.4,5.32-.61,7.99-.61,5.79,0,9.95.98,12.5,2.95,2.55,1.97,3.82,5.79,3.82,11.46v92.53c-1.27.35-3.24.69-5.9,1.04-2.66.35-5.38.52-8.16.52Z"/>
    <path class="cls-1" d="M305.3,302.94c0,9.26-1.39,17.36-4.17,24.31s-6.74,12.73-11.89,17.36c-5.15,4.63-11.31,8.1-18.49,10.42-7.18,2.31-15.1,3.47-23.78,3.47-1.97,0-4.23-.06-6.77-.17-2.55-.12-5.18-.35-7.9-.69-2.72-.35-5.44-.78-8.16-1.3-2.72-.52-5.24-1.24-7.55-2.17-6.37-2.43-9.55-6.65-9.55-12.67v-81.08c0-2.43.66-4.31,2-5.64,1.33-1.33,3.15-2.4,5.47-3.21,4.98-1.62,10.24-2.69,15.8-3.21s10.53-.78,14.93-.78c9.03,0,17.21,1.1,24.57,3.3,7.35,2.2,13.66,5.58,18.92,10.16,5.27,4.57,9.34,10.33,12.24,17.27,2.89,6.94,4.34,15.16,4.34,24.65ZM274.05,303.46c0-10.42-2.43-18.26-7.29-23.52-4.86-5.27-11.34-7.9-19.44-7.9-1.62,0-3.27.06-4.95.17-1.68.12-3.39.29-5.12.52v60.42c1.27.23,2.83.43,4.69.61,1.85.17,3.59.26,5.21.26,7.99,0,14.47-2.54,19.44-7.64,4.98-5.09,7.47-12.73,7.47-22.92Z"/>
    <path class="cls-1" d="M355.12,349.11c-5.9,6.14-14.58,9.2-26.04,9.2-3.12,0-6.02-.26-8.68-.78-2.66-.52-5.01-1.39-7.03-2.6-2.03-1.22-3.62-2.8-4.77-4.77-1.16-1.97-1.74-4.4-1.74-7.29,0-2.31.32-4.34.96-6.08.63-1.74,1.42-3.13,2.34-4.17,2.2.46,4.08.78,5.64.96s3.27.26,5.12.26c4.51,0,7.75-1.13,9.72-3.38,1.97-2.26,2.95-5.58,2.95-9.98v-70.31c1.39-.23,3.41-.55,6.08-.96,2.66-.4,5.32-.61,7.99-.61,5.79,0,9.95.98,12.5,2.95,2.54,1.97,3.82,5.79,3.82,11.46v61.46c0,10.3-2.95,18.52-8.85,24.65Z"/>
    <path class="cls-1" d="M486.37,302.94c0,9.03-1.39,17.04-4.17,24.04-2.78,7-6.63,12.85-11.55,17.53-4.92,4.69-10.74,8.25-17.45,10.68-6.71,2.43-14.01,3.65-21.88,3.65s-15.16-1.22-21.87-3.65c-6.71-2.43-12.5-6.02-17.36-10.76-4.86-4.74-8.68-10.59-11.46-17.53-2.78-6.94-4.17-14.93-4.17-23.96s1.42-17.01,4.25-23.96c2.83-6.94,6.71-12.76,11.63-17.45,4.92-4.69,10.7-8.25,17.36-10.68,6.65-2.43,13.86-3.65,21.61-3.65s14.96,1.22,21.61,3.65c6.65,2.43,12.47,5.99,17.45,10.68,4.97,4.69,8.88,10.5,11.72,17.45,2.83,6.94,4.25,14.93,4.25,23.96ZM455.12,302.94c0-10.42-2.14-18.23-6.42-23.44-4.28-5.21-10.07-7.81-17.36-7.81s-12.76,2.58-17.1,7.73c-4.34,5.15-6.51,12.99-6.51,23.52s2.14,18.4,6.42,23.61c4.28,5.21,10.07,7.81,17.36,7.81s12.9-2.6,17.19-7.81c4.28-5.21,6.42-13.08,6.42-23.61Z"/>
    <path class="cls-1" d="M604.07,302.94c0,9.03-1.39,17.04-4.17,24.04-2.78,7-6.63,12.85-11.55,17.53-4.92,4.69-10.74,8.25-17.45,10.68-6.71,2.43-14.01,3.65-21.88,3.65s-15.16-1.22-21.87-3.65c-6.71-2.43-12.5-6.02-17.36-10.76-4.86-4.74-8.68-10.59-11.46-17.53-2.78-6.94-4.17-14.93-4.17-23.96s1.42-17.01,4.25-23.96c2.83-6.94,6.71-12.76,11.63-17.45,4.92-4.69,10.7-8.25,17.36-10.68,6.65-2.43,13.86-3.65,21.61-3.65s14.96,1.22,21.61,3.65c6.65,2.43,12.47,5.99,17.45,10.68,4.97,4.69,8.88,10.5,11.72,17.45,2.83,6.94,4.25,14.93,4.25,23.96ZM572.82,302.94c0-10.42-2.14-18.23-6.42-23.44-4.28-5.21-10.07-7.81-17.36-7.81s-12.76,2.58-17.1,7.73c-4.34,5.15-6.51,12.99-6.51,23.52s2.14,18.4,6.42,23.61c4.28,5.21,10.07,7.81,17.36,7.81s12.9-2.6,17.19-7.81c4.28-5.21,6.42-13.08,6.42-23.61Z"/>
  </g>
</svg>